<?xml version="1.0" standalone="no"?>
<!DOCTYPE svg PUBLIC "-//W3C//DTD SVG 20010904//EN"
 "http://www.w3.org/TR/2001/REC-SVG-20010904/DTD/svg10.dtd">
<svg version="1.0" xmlns="http://www.w3.org/2000/svg"
 width="341.000000pt" height="341.000000pt" viewBox="0 0 341.000000 341.000000"
 preserveAspectRatio="xMidYMid meet">
<metadata>
Created by potrace 1.14, written by Peter Selinger 2001-2017
</metadata>
<g transform="translate(0.000000,341.000000) scale(0.100000,-0.100000)"
fill="#000000" stroke="none">
<path d="M1587 3394 c-4 -4 -31 -7 -62 -6 -30 0 -55 -3 -55 -7 0 -4 -14 -5
-31 -3 -19 3 -29 1 -26 -5 4 -5 -7 -8 -25 -5 -19 3 -28 1 -25 -5 4 -6 -4 -8
-20 -5 -16 3 -24 1 -20 -5 4 -6 -4 -8 -20 -5 -16 3 -24 1 -20 -5 4 -6 -3 -8
-18 -5 -15 2 -25 0 -25 -7 0 -7 -4 -10 -8 -7 -11 7 -84 -19 -76 -27 3 -3 -3
-3 -15 0 -13 3 -21 1 -21 -6 0 -7 -4 -10 -9 -7 -14 9 -42 -5 -34 -17 4 -6 1
-7 -6 -3 -15 10 -73 -13 -65 -25 3 -5 -2 -6 -10 -3 -9 3 -16 1 -16 -5 0 -6 -7
-8 -15 -5 -8 3 -17 0 -20 -8 -3 -8 -14 -14 -23 -15 -19 -1 -92 -41 -92 -50 0
-2 5 -1 12 3 7 4 8 3 4 -4 -4 -6 -13 -9 -21 -6 -8 4 -18 -1 -21 -10 -3 -9 -10
-14 -14 -11 -5 3 -13 -3 -19 -12 -6 -10 -11 -14 -11 -10 0 9 -90 -51 -90 -60
0 -3 8 1 18 8 15 13 16 12 3 -3 -7 -10 -17 -16 -21 -13 -11 7 -61 -35 -54 -46
3 -5 2 -8 -3 -7 -5 2 -22 -11 -38 -27 -21 -22 -24 -23 -10 -5 10 14 -4 3 -32
-25 -28 -27 -49 -53 -46 -57 2 -5 -2 -8 -10 -8 -8 0 -22 -10 -33 -22 -19 -23
-19 -23 1 -8 12 8 10 4 -5 -9 -14 -14 -24 -29 -22 -34 1 -4 -2 -6 -7 -3 -5 3
-15 -2 -22 -11 -12 -14 -12 -16 1 -9 8 4 3 -2 -11 -13 -15 -12 -35 -33 -45
-48 -17 -27 -17 -28 2 -14 10 8 4 0 -14 -17 -19 -18 -30 -37 -26 -44 4 -6 3
-8 -3 -5 -5 3 -18 -8 -28 -25 -13 -22 -14 -29 -4 -24 8 4 3 -1 -10 -12 -15
-12 -21 -24 -16 -32 5 -8 4 -11 -3 -6 -10 6 -28 -30 -24 -46 1 -5 -3 -8 -9 -8
-6 0 -8 -7 -5 -16 4 -10 2 -13 -6 -8 -8 5 -9 2 -5 -10 4 -10 3 -15 -3 -11 -9
6 -14 -8 -11 -27 0 -5 -4 -8 -10 -8 -6 0 -8 -7 -5 -16 3 -8 2 -12 -4 -9 -9 5
-12 -8 -9 -31 0 -4 -5 -10 -11 -14 -7 -4 -13 -19 -13 -33 -1 -14 -5 -23 -8
-21 -7 4 -22 -50 -23 -83 0 -12 -4 -19 -10 -16 -5 4 -7 -1 -3 -10 3 -10 3 -17
-2 -17 -11 0 -35 -125 -26 -139 3 -6 1 -11 -5 -11 -7 0 -11 -14 -9 -32 1 -18
-1 -40 -5 -49 -4 -9 -6 -20 -5 -25 1 -5 0 -12 -1 -16 -6 -20 -5 -34 5 -40 6
-5 6 -8 -2 -8 -18 0 -18 -220 -1 -239 11 -11 10 -12 -1 -6 -11 6 -13 4 -8 -9
4 -10 7 -34 7 -54 0 -28 3 -33 10 -22 6 9 10 10 10 3 0 -6 -4 -14 -8 -17 -11
-7 -2 -66 10 -66 5 0 6 -4 3 -10 -7 -12 15 -131 24 -126 3 2 7 -7 8 -20 4 -45
6 -54 14 -54 5 0 6 -7 3 -15 -4 -8 -1 -15 5 -15 6 0 8 -7 5 -15 -4 -8 -1 -15
6 -15 6 0 8 -5 5 -10 -4 -6 -2 -16 3 -23 5 -7 12 -25 16 -40 4 -15 11 -25 16
-22 5 3 7 0 4 -8 -8 -21 74 -180 88 -171 7 4 8 3 4 -5 -7 -10 29 -81 40 -81 3
0 2 5 -2 12 -4 7 -3 8 4 4 6 -4 9 -13 6 -20 -3 -8 5 -21 18 -30 13 -9 23 -20
23 -24 0 -4 4 -6 8 -4 5 1 6 -2 2 -8 -9 -14 14 -42 28 -33 6 4 7 1 2 -6 -8
-13 33 -64 45 -56 4 3 7 -1 6 -8 0 -7 13 -30 31 -50 31 -35 52 -50 37 -25 -4
7 -3 8 5 4 6 -4 9 -10 7 -14 -2 -4 19 -30 46 -57 28 -28 47 -43 43 -35 -5 8 9
-3 29 -25 21 -22 34 -33 31 -25 -4 8 5 0 20 -18 16 -20 33 -31 42 -28 8 3 12
2 9 -2 -7 -12 103 -84 116 -76 6 4 8 3 4 -4 -8 -13 191 -115 211 -108 9 4 11
1 7 -6 -5 -7 0 -9 14 -6 12 4 20 3 17 -2 -6 -10 24 -22 36 -14 5 3 9 0 9 -7 0
-6 8 -9 20 -6 11 3 18 2 15 -3 -6 -10 43 -23 57 -14 7 5 8 2 3 -6 -6 -9 -2
-10 15 -5 17 5 20 4 15 -5 -6 -10 -1 -12 18 -8 15 3 24 1 21 -4 -4 -5 2 -9 12
-7 11 1 27 -1 37 -6 9 -4 26 -5 37 -2 12 3 18 1 14 -5 -5 -7 4 -9 24 -6 17 2
29 1 26 -4 -3 -4 2 -8 11 -8 9 0 14 4 10 10 -3 5 7 3 22 -5 18 -9 29 -11 31
-4 3 6 9 6 18 -2 11 -9 14 -8 14 2 0 12 2 12 9 0 6 -9 22 -12 50 -8 23 2 44 1
46 -4 5 -8 43 -4 53 6 3 2 11 0 18 -6 8 -7 14 -7 19 1 3 6 11 8 16 4 17 -10
170 7 162 19 -4 6 -1 7 6 2 17 -10 123 4 116 16 -3 5 1 6 9 3 8 -3 21 -2 28 2
7 5 24 7 37 5 13 -1 21 1 17 7 -4 6 3 8 16 4 13 -3 19 -1 15 5 -4 6 3 8 18 5
15 -2 25 0 25 7 0 6 3 10 8 9 14 -5 122 34 122 44 0 5 5 6 11 3 5 -4 19 1 31
12 11 10 22 17 24 16 12 -8 24 -1 18 9 -5 8 -2 9 9 5 10 -3 17 -2 17 4 0 6 4
8 9 4 5 -3 15 0 23 7 7 7 20 14 28 16 8 2 24 14 36 28 24 25 40 32 28 12 -5
-7 3 -5 16 4 14 9 24 22 22 28 -1 6 2 9 8 5 15 -9 62 23 54 37 -5 7 -2 8 6 3
9 -5 22 2 39 21 14 17 22 23 16 14 -12 -19 20 7 91 72 29 26 47 49 40 52 -6 2
-1 5 11 5 12 1 25 6 29 13 5 7 3 8 -7 3 -12 -8 -12 -6 0 8 7 9 18 14 24 10 6
-4 7 -1 2 6 -8 14 51 81 71 81 12 0 29 28 26 43 -1 4 5 7 13 7 8 0 15 5 15 11
0 5 -5 7 -12 3 -7 -4 -8 -3 -4 5 4 6 11 9 16 6 10 -6 41 35 35 46 -3 4 2 10
11 13 8 3 13 10 10 15 -3 5 1 11 8 14 8 3 20 16 26 28 8 14 8 19 1 15 -7 -5
-9 -1 -5 8 3 9 10 13 15 10 8 -5 11 2 8 22 0 3 7 11 17 18 11 8 14 18 9 26 -6
9 -4 11 5 5 10 -6 12 -4 7 9 -4 9 -3 15 1 12 9 -6 56 84 48 91 -3 3 2 12 10
20 8 9 13 22 10 30 -4 9 -2 11 6 7 7 -5 9 0 6 14 -4 12 -2 20 3 16 8 -5 13 12
12 43 -1 7 4 10 10 6 6 -4 8 2 5 15 -4 12 -2 22 4 22 6 0 8 9 5 20 -3 11 -2
18 3 15 10 -6 23 62 14 77 -5 7 -3 8 6 3 10 -6 12 -1 8 18 -3 15 -2 24 2 22
13 -8 18 43 6 56 -8 9 -8 10 3 4 11 -6 13 -2 9 19 -3 14 -2 26 2 26 4 0 10 18
12 39 2 22 1 38 -2 36 -3 -2 -7 6 -7 18 -2 16 0 18 7 8 7 -12 11 59 10 184 -1
116 -1 120 -10 100 -7 -16 -9 -17 -9 -3 -1 9 3 19 7 22 11 6 2 76 -9 76 -5 0
-9 5 -9 11 0 5 4 8 9 5 4 -3 6 6 3 19 -2 14 -7 23 -11 21 -4 -3 -5 11 -3 31 3
22 1 33 -5 30 -6 -4 -8 5 -6 21 4 21 2 24 -6 12 -8 -11 -9 -7 -5 18 4 19 2 32
-4 32 -5 0 -8 10 -4 22 3 13 1 19 -5 15 -7 -5 -9 1 -5 15 4 16 2 19 -8 13 -8
-5 -11 -4 -6 3 8 13 -3 64 -13 58 -3 -2 -7 8 -8 22 0 15 -6 28 -12 30 -5 2 -7
10 -4 19 4 11 2 14 -5 9 -7 -4 -10 -2 -7 6 7 18 -71 178 -86 178 -7 0 -10 3
-6 6 6 7 -19 64 -29 64 -3 0 -2 -5 2 -12 4 -7 3 -8 -5 -4 -6 4 -9 12 -6 17 8
12 -30 60 -40 51 -5 -4 -5 -2 -2 4 6 10 -38 84 -50 84 -3 0 1 -8 8 -17 13 -16
12 -17 -3 -5 -10 8 -14 20 -11 29 4 11 2 14 -5 9 -7 -4 -12 -1 -12 9 0 8 -7
18 -15 21 -8 4 -15 12 -15 20 0 8 -6 14 -13 14 -8 0 -22 10 -33 23 l-19 22 25
-20 c21 -17 21 -15 -4 12 -16 18 -33 30 -38 27 -5 -3 -7 0 -6 8 2 7 -3 12 -10
10 -8 -1 -11 2 -8 7 3 5 -11 24 -32 42 -88 77 -135 114 -148 114 -7 0 -19 7
-26 15 -11 12 -10 12 2 5 9 -6 4 0 -10 13 -14 12 -31 20 -38 17 -7 -3 -10 -1
-7 5 7 12 -32 33 -47 24 -6 -4 -8 -3 -5 3 8 13 -50 46 -66 37 -6 -4 -9 -4 -5
1 10 10 -29 38 -41 31 -5 -3 -12 1 -15 10 -4 10 -14 14 -26 11 -13 -3 -18 -1
-13 6 4 7 0 8 -11 4 -9 -4 -15 -3 -12 2 7 11 -22 23 -35 15 -5 -3 -9 -2 -9 3
0 13 -58 35 -71 27 -7 -4 -9 -3 -6 3 6 9 -41 26 -78 27 -5 1 -12 4 -16 8 -3 4
-18 9 -35 12 -16 2 -37 7 -46 11 -9 4 -22 4 -28 0 -5 -3 -10 -2 -10 3 0 5 -42
15 -92 21 -51 7 -99 15 -106 17 -7 2 -10 -1 -7 -6 3 -6 1 -10 -4 -10 -6 0 -11
5 -11 10 0 14 -33 12 -49 -2 -11 -10 -13 -10 -7 0 6 9 -15 12 -87 12 -51 0
-97 -3 -100 -6z m1263 -449 c13 -14 21 -25 18 -25 -2 0 -15 11 -28 25 -13 14
-21 25 -18 25 2 0 15 -11 28 -25z m394 -541 c3 -8 2 -12 -4 -9 -6 3 -10 10
-10 16 0 14 7 11 14 -7z m-3066 -1409 c-3 -3 -9 2 -12 12 -6 14 -5 15 5 6 7
-7 10 -15 7 -18z m277 -415 c10 -11 16 -20 13 -20 -3 0 -13 9 -23 20 -10 11
-16 20 -13 20 3 0 13 -9 23 -20z m2395 -114 c0 -2 -8 -10 -17 -17 -16 -13 -17
-12 -4 4 13 16 21 21 21 13z m-50 -51 c-7 -8 -17 -15 -23 -15 -6 0 -2 7 9 15
25 19 30 19 14 0z"/>
<path d="M2965 580 c-16 -16 -25 -30 -19 -29 8 0 60 59 52 59 -3 0 -17 -13
-33 -30z"/>
</g>
</svg>
